{"title":"Red Tails 2012 DVDRiP.XViD.AC3-ART3MiS","uid":7232167,"size":1223776626,"categoryP":"video","categoryS":"movies","magnet":"?xt=urn:btih:30bf5bdf4d5449d336d521856f4c6488cec7ae3d&amp;dn=Red+Tails+2012+DVDRiP.XViD.AC3-ART3MiS&amp;tr=udp%3A%2F%2Ftracker.openbittorrent.com%3A80&amp;tr=udp%3A%2F%2Fopen.demonii.com%3A1337&amp;tr=udp%3A%2F%2Ftracker.coppersurfer.tk%3A6969&amp;tr=udp%3A%2F%2Fexodus.desync.com%3A6969","seeders":0,"leechers":1,"uploader":"neon","files":-1,"time":1335866925,"description":"A crew of African American pilots in the Tuskegee training program, having faced segregation while kept mostly on the ground during World War II, are called into duty under the guidance of Col. A.J. Bullard.\n \nCast: Cuba Gooding Jr., Terrence Howard, Bryan Cranston, Stacie Davis, Mark Doerr \n &lt;a href=&quot;\nhttp://www.imdb.com/title/tt0485985/&quot; rel=&quot;nofollow&quot; target=&quot;_NEW&quot;&gt;\nhttp://www.imdb.com/title/tt0485985/&lt;/a&gt;\n\nComplete name : Red Tails 2012 DVDRiP.XViD.AC3-ART3MiS.avi\n Format : AVI\n Format/Info : Audio Video Interleave\n File size : 1.14 GiB\n Duration : 2h 5mn\n Overall bit rate : 1 303 Kbps\n Writing application : VirtualDubMod 1.5.10.2 (build 2540/release)\n Writing library : VirtualDub build 32842/release\n \nVideo\n ID : 0\n Format : MPEG-4 Visual\n Format profile : Advanced Simple@L5\n Format settings, BVOP : 2\n Format settings, QPel : No\n Format settings, GMC : No warppoints\n Format settings, Matrix : Default (H.263)\n Codec ID : XVID\n Codec ID/Hint : XviD\n Duration : 2h 5mn\n Bit rate : 1 102 Kbps\n Width : 640 pixels\n Height : 272 pixels\n Display aspect ratio : 2.35:1\n Frame rate : 23.976 fps\n Color space : YUV\n Chroma subsampling : 4:2:0\n Bit depth : 8 bits\n Scan type : Progressive\n Compression mode : Lossy\n Bits/(Pixel*Frame) : 0.264\n Stream size : 987 MiB (85%)\n Writing library : XviD 61\n \nAudio\n ID : 1\n Format : AC-3\n Format/Info : Audio Coding 3\n Mode extension : CM (complete main)\n Format settings, Endianness : Big\n Codec ID : 2000\n Duration : 2h 4mn\n Bit rate mode : Constant\n Bit rate : 192 Kbps\n Channel(s) : 2 channels\n Channel positions : Front: L R\n Sampling rate : 48.0 KHz\n Bit depth : 16 bits\n Compression mode : Lossy\n Stream size : 172 MiB (15%)\n Alignment : Aligned on interleaves\n Interleave, duration : 42 ms (1.00 video frame)\n Interleave, preload duration : 512 ms\n &lt;a href=&quot;\nhttp://www.shotpix.com/images/72347861174207712031.jpg&quot; rel=&quot;nofollow&quot; target=&quot;_NEW&quot;&gt;\nhttp://www.shotpix.com/images/72347861174207712031.jpg&lt;/a&gt;","torrent":{"xt":"urn:btih:30bf5bdf4d5449d336d521856f4c6488cec7ae3d","amp;dn":"Red+Tails+2012+DVDRiP.XViD.AC3-ART3MiS","amp;tr":["udp%3A%2F%2Ftracker.openbittorrent.com%3A80","udp%3A%2F%2Fopen.demonii.com%3A1337","udp%3A%2F%2Ftracker.coppersurfer.tk%3A6969","udp%3A%2F%2Fexodus.desync.com%3A6969"],"infoHash":"30bf5bdf4d5449d336d521856f4c6488cec7ae3d","infoHashBuffer":{"type":"Buffer","data":[48,191,91,223,77,84,73,211,54,213,33,133,111,76,100,136,206,199,174,61]},"announce":[],"urlList":[]}}